<svg width="1216" height="319" viewBox="0 0 1216 319" fill="none" xmlns="http://www.w3.org/2000/svg">
<path d="M415.283 224.152L386.18 121.692H385.382C385.648 124.35 385.914 127.938 386.18 132.456C386.445 136.975 386.711 141.892 386.977 147.207C387.243 152.39 387.376 157.44 387.376 162.357V224.152H353.289V81.824H404.519L434.22 182.889H435.018L464.121 81.824H515.351V224.152H480.068V161.759C480.068 157.241 480.135 152.457 480.268 147.407C480.401 142.224 480.6 137.373 480.866 132.855C481.132 128.204 481.331 124.549 481.464 121.891H480.666L451.962 224.152H415.283ZM611.592 224.152H537.438V202.225L555.179 195.447V110.33L537.438 103.751V81.824H611.592V103.751L593.851 110.33V195.447L611.592 202.225V224.152ZM769.355 224.152H718.922L666.895 123.885H666.097C666.363 126.144 666.562 128.802 666.695 131.858C666.961 134.915 667.16 138.104 667.293 141.427C667.426 144.749 667.559 148.005 667.692 151.194C667.825 154.384 667.891 157.307 667.891 159.965V224.152H633.804V81.824H684.038L735.866 180.696H736.464C736.331 178.437 736.132 175.846 735.866 172.922C735.733 169.866 735.6 166.809 735.467 163.753C735.334 160.563 735.201 157.44 735.069 154.384C735.069 151.327 735.069 148.603 735.069 146.211V81.824H769.355V224.152ZM935.601 224.152H885.168L833.14 123.885H832.343C832.609 126.144 832.808 128.802 832.941 131.858C833.207 134.915 833.406 138.104 833.539 141.427C833.672 144.749 833.805 148.005 833.938 151.194C834.071 154.384 834.137 157.307 834.137 159.965V224.152H800.05V81.824H850.284L902.112 180.696H902.71C902.577 178.437 902.378 175.846 902.112 172.922C901.979 169.866 901.846 166.809 901.713 163.753C901.58 160.563 901.447 157.44 901.315 154.384C901.315 151.327 901.315 148.603 901.315 146.211V81.824H935.601V224.152ZM1053.61 224.152L1046.63 197.441H1000.38L993.207 224.152H950.947L997.393 81.226H1048.62L1095.67 224.152H1053.61ZM1032.48 142.623C1031.81 140.098 1030.88 136.509 1029.69 131.858C1028.49 127.074 1027.29 122.157 1026.1 117.107C1024.9 112.057 1023.97 107.937 1023.31 104.748C1022.78 107.937 1021.91 111.924 1020.72 116.708C1019.65 121.493 1018.52 126.21 1017.33 130.862C1016.26 135.513 1015.33 139.433 1014.54 142.623L1008.36 165.945H1038.66L1032.48 142.623ZM1110.93 224.152V81.824H1149.41V193.055H1204.22V224.152H1110.93Z" fill="#333333"/>
<path d="M142.785 0.996984C148.368 3.83047 153.548 7.15909 158.766 10.61C160.902 11.9855 160.902 11.9855 163.081 13.3887C166.582 15.6475 170.066 17.9327 173.546 20.223C168.938 49.0897 161.12 77.304 152.505 105.204C152.046 106.692 151.587 108.181 151.114 109.714C150.712 111 150.31 112.285 149.896 113.61C147.986 120.243 146.382 126.96 144.707 133.656C160.569 133.656 176.43 133.656 192.772 133.656C190.3 141.073 188.143 147.251 184.737 154.084C183.913 155.74 183.088 157.396 182.239 159.102C181.353 160.856 180.467 162.61 179.555 164.418C178.634 166.249 177.713 168.08 176.765 169.967C169.813 183.692 162.627 197.282 155.282 210.801C153.829 213.481 153.829 213.481 152.346 216.216C151.431 217.883 150.517 219.551 149.574 221.27C148.772 222.732 147.971 224.195 147.144 225.702C144.662 229.862 141.914 233.657 138.94 237.477C139.903 216.758 141.718 196.484 144.707 175.954C125.674 175.954 106.64 175.954 87.0294 175.954C88.0038 151.595 91.2391 127.846 94.84 103.743C96.3114 93.8624 97.5447 83.993 98.565 74.0558C84.0403 80.8393 70.6099 88.3976 57.3183 97.3255C48.9543 102.895 48.9543 102.895 44.7322 102.895C44.7322 140.328 44.7322 177.761 44.7322 216.328C47.9045 217.597 51.0768 218.866 54.3452 220.173C57.0917 221.67 59.8034 223.232 62.4787 224.852C64.0068 225.773 65.5349 226.694 67.1092 227.643C69.5347 229.12 69.5347 229.12 72.0091 230.628C73.6868 231.642 75.3645 232.657 77.093 233.702C82.3329 236.875 87.5658 240.058 92.7972 243.245C94.4745 244.264 96.1517 245.284 97.8797 246.334C105.467 250.947 113.049 255.567 120.622 260.203C122.385 261.281 122.385 261.281 124.183 262.381C127.216 264.276 130.196 266.255 133.172 268.238C142.072 267.745 148.948 263.141 156.371 258.61C158.317 257.446 158.317 257.446 160.302 256.258C164.444 253.776 168.575 251.275 172.705 248.772C176.79 246.315 180.877 243.862 184.965 241.409C187.499 239.887 190.031 238.361 192.561 236.831C194.359 235.745 194.359 235.745 196.194 234.637C197.428 233.863 198.662 233.089 199.934 232.292C204.308 229.786 204.308 229.786 210.309 227.133C222.482 221.553 222.482 221.553 229.456 210.758C230.241 203.805 230.276 197.194 230.053 190.2C230.063 187.702 230.073 185.203 230.083 182.628C230.109 176.022 229.996 169.425 229.855 162.821C229.734 156.067 229.745 149.314 229.745 142.56C229.725 129.335 229.56 116.116 229.302 102.895C227.789 102.302 226.277 101.709 224.718 101.099C220.364 99.3246 216.777 97.45 212.862 94.889C211.679 94.1207 210.495 93.3524 209.276 92.5608C207.471 91.3712 207.471 91.3712 205.63 90.1576C204.389 89.3496 203.149 88.5417 201.871 87.7093C198.833 85.7291 195.802 83.7387 192.772 81.7462C193.86 71.3981 195.677 61.9564 198.66 51.9459C199.357 49.5865 200.053 47.2271 200.771 44.7962C201.57 42.1493 201.57 42.1493 202.385 39.449C210.327 42.3315 217.344 46.2735 224.51 50.6842C225.678 51.3951 226.846 52.106 228.049 52.8384C231.755 55.0976 235.455 57.3669 239.155 59.6363C241.656 61.1615 244.157 62.6861 246.658 64.21C264.603 75.1598 264.603 75.1598 271.599 79.8236C272.384 84.8408 272.784 89.4334 272.956 94.4815C273.063 96.7522 273.063 96.7522 273.173 99.0687C273.876 114.974 274.183 130.896 274.463 146.813C274.608 154.352 274.875 161.871 275.252 169.402C278.204 229.83 278.204 229.83 267.545 245.273C257.374 254.597 245.752 259.667 232.869 264.256C225.369 267.07 219.027 271.033 212.366 275.418C200.992 282.31 200.992 282.31 196.233 285.186C185.31 291.785 174.399 298.387 163.701 305.346C162.288 306.26 160.875 307.174 159.419 308.115C156.93 309.738 154.454 311.382 151.997 313.053C144.647 317.841 139.934 318.958 131.249 318.226C126.521 316.152 126.521 316.152 121.869 313.217C120.119 312.131 118.369 311.045 116.566 309.927C114.71 308.74 112.854 307.553 110.942 306.33C108.992 305.112 107.041 303.894 105.032 302.639C100.988 300.111 96.9499 297.573 92.9183 295.025C85.8238 290.549 78.688 286.142 71.5463 281.742C66.6099 278.698 61.682 275.64 56.756 272.579C49.6131 268.144 42.4566 263.732 35.292 259.331C33.4335 258.188 31.5751 257.044 29.6603 255.866C26.0824 253.665 22.502 251.468 18.9189 249.275C17.3182 248.289 15.7175 247.302 14.0683 246.286C12.6539 245.418 11.2395 244.55 9.7823 243.656C6.28022 241.322 6.28022 241.322 2.43502 237.477C1.97323 232.573 1.75001 227.871 1.69339 222.958C1.66195 221.46 1.63051 219.963 1.59811 218.419C1.5025 213.449 1.43902 208.479 1.3836 203.508C1.36313 201.811 1.34266 200.113 1.32157 198.364C1.21875 189.373 1.14427 180.382 1.08883 171.391C1.02488 162.114 0.852808 152.842 0.656743 143.567C0.527133 136.426 0.482897 129.287 0.461186 122.146C0.435398 118.728 0.37692 115.309 0.284726 111.892C-0.39566 85.1421 -0.39566 85.1421 6.62331 76.7216C11.5181 73.2469 16.1813 70.7052 21.661 68.288C23.8048 66.9398 25.9486 65.5915 28.1573 64.2025C30.1772 63.0129 32.197 61.8233 34.2781 60.5976C36.7518 59.1312 39.2251 57.6641 41.6981 56.1966C43.0699 55.3856 44.4417 54.5746 45.855 53.7389C53.2277 49.3672 60.5782 44.9585 67.9288 40.5497C72.0902 38.0539 76.2537 35.5615 80.4191 33.0724C90.0078 27.3328 99.5613 21.5543 109.012 15.5892C111.377 14.1055 111.377 14.1055 113.79 12.5917C116.693 10.7632 119.585 8.91733 122.465 7.05111C135.019 -0.833688 135.019 -0.833687 142.785 0.996984Z" fill="#FD9727"/>
<path d="M202.384 39.4414C210.326 42.3239 217.343 46.2659 224.509 50.6766C226.261 51.743 226.261 51.743 228.048 52.8308C231.754 55.09 235.454 57.3593 239.154 59.6287C241.655 61.1539 244.156 62.6785 246.657 64.2024C264.602 75.1522 264.602 75.1522 271.598 79.816C272.281 84.9015 272.584 89.5533 272.65 94.657C272.691 96.1893 272.731 97.7216 272.774 99.3003C272.898 104.386 272.974 109.471 273.04 114.558C273.066 116.296 273.092 118.034 273.119 119.824C273.25 129.029 273.342 138.234 273.406 147.439C273.481 156.933 273.699 166.419 273.95 175.909C274.115 183.22 274.169 190.528 274.194 197.84C274.226 201.337 274.299 204.835 274.417 208.33C275.253 234.777 275.253 234.777 269.179 242.446C261.265 249.516 251.891 254.966 241.063 254.569C235.594 253.226 230.668 251.144 225.456 249.005C219.6 247.17 213.695 245.514 207.792 243.838C204.919 242.993 202.048 242.145 199.178 241.292C197.064 240.665 194.95 240.038 192.771 239.392C197.316 233.971 200.169 231.795 207.008 229.614C215.717 226.627 222.081 224.073 227.378 216.321C232.147 199.11 230.614 180.402 230.118 162.681C229.958 155.941 229.951 149.2 229.932 142.458C229.871 129.264 229.64 116.077 229.301 102.887C227.788 102.295 226.276 101.702 224.717 101.091C220.363 99.317 216.776 97.4424 212.861 94.8814C211.678 94.1131 210.494 93.3448 209.275 92.5532C208.072 91.7602 206.869 90.9671 205.629 90.15C204.388 89.342 203.148 88.5341 201.87 87.7017C198.832 85.7215 195.801 83.7311 192.771 81.7386C193.859 71.3905 195.676 61.9488 198.659 51.9383C199.356 49.5789 200.052 47.2195 200.77 44.7886C201.303 43.0241 201.835 41.2595 202.384 39.4414Z" fill="#FD8F28"/>
<path d="M104.076 89.207C106.482 89.2171 108.889 89.2272 111.368 89.2375C113.284 89.2416 113.284 89.2416 115.239 89.2458C119.333 89.2566 123.428 89.2807 127.522 89.3051C130.292 89.3148 133.062 89.3235 135.832 89.3314C142.635 89.3527 149.438 89.3859 156.241 89.4253C155.403 92.8307 154.561 96.2351 153.718 99.6391C153.249 101.535 152.781 103.431 152.298 105.384C149.874 114.833 147.272 124.234 144.705 133.645C160.567 133.645 176.428 133.645 192.77 133.645C190.298 141.062 188.141 147.239 184.734 154.073C183.91 155.729 183.086 157.384 182.237 159.09C181.351 160.845 180.465 162.599 179.552 164.407C178.632 166.238 177.711 168.069 176.762 169.956C169.811 183.681 162.625 197.271 155.28 210.789C153.827 213.47 153.827 213.47 152.344 216.204C151.429 217.872 150.514 219.54 149.572 221.259C148.77 222.721 147.968 224.184 147.142 225.691C144.66 229.851 141.912 233.645 138.938 237.466C139.901 216.746 141.716 196.472 144.705 175.942C125.672 175.942 106.638 175.942 87.0273 175.942C87.8291 155.899 89.9661 136.326 92.7951 116.462C93.1378 114.034 93.4804 111.606 93.8334 109.104C96.6984 89.4991 96.6984 89.4991 104.076 89.207Z" fill="#FDC02F"/>
<path d="M73.5691 233.625C80.7307 236.49 86.2072 239.094 92.6148 243.11C94.3621 244.2 96.1093 245.289 97.9095 246.411C100.612 248.112 100.612 248.112 103.369 249.847C106.954 252.088 110.539 254.328 114.124 256.569C115.704 257.561 117.284 258.553 118.912 259.576C121.211 261.005 121.211 261.005 123.557 262.464C125.93 264.133 125.93 264.133 128.352 265.837C132.982 268.618 132.982 268.618 137.912 268.05C143.765 265.958 148.283 263.106 153.425 259.61C155.458 258.289 157.492 256.968 159.587 255.607C163.822 252.823 168.029 249.995 172.204 247.121C187.5 237.342 187.5 237.342 196.988 237.705C202.874 239.142 208.295 240.995 213.919 243.238C216.768 244.142 219.621 245.033 222.48 245.904C224.917 246.729 227.35 247.562 229.78 248.405C231.052 248.837 232.323 249.27 233.633 249.716C236.678 250.752 239.718 251.8 242.758 252.851C240.46 259.746 239.072 260.206 232.95 263.703C231.273 264.675 229.596 265.647 227.869 266.648C226.041 267.686 224.213 268.724 222.33 269.794C218.478 272.024 214.628 274.257 210.78 276.493C208.774 277.654 206.768 278.815 204.702 280.011C194.562 285.936 184.532 292.038 174.506 298.152C172.66 299.273 170.815 300.394 168.913 301.549C166.299 303.143 166.299 303.143 163.631 304.769C162 305.76 160.369 306.752 158.689 307.774C154.997 310.101 151.517 312.557 148.01 315.148C141.668 318.874 138.52 318.864 131.247 318.219C126.122 315.901 126.122 315.901 120.988 312.669C119.1 311.498 117.211 310.327 115.265 309.121C113.322 307.88 111.379 306.64 109.378 305.362C106.485 303.557 106.485 303.557 103.535 301.716C99.8991 299.444 96.27 297.161 92.6496 294.865C85.6684 290.442 78.6548 286.07 71.6465 281.69C72.2809 265.829 72.9154 249.967 73.5691 233.625Z" fill="#FDB82E"/>
<path d="M4.35613 175.949C13.3593 177.337 21.3753 179.563 29.9507 182.678C33.5084 183.957 33.5084 183.957 37.138 185.262C42.8081 187.485 42.8081 187.485 44.7307 189.407C44.8705 193.932 44.8917 198.46 44.8509 202.986C44.8335 205.467 44.8162 207.947 44.7983 210.503C44.776 212.424 44.7537 214.345 44.7307 216.324C46.7963 217.137 46.7963 217.137 48.9036 217.968C50.6988 218.694 52.4941 219.421 54.3437 220.169C56.0275 220.838 57.7112 221.508 59.4459 222.198C65.0199 224.89 69.1572 227.337 73.5697 231.705C75.9466 240.057 75.4022 247.86 74.7714 256.458C74.6846 258.699 74.5979 260.939 74.5085 263.247C74.2824 268.765 73.9671 274.262 73.5697 279.77C65.9857 278.5 60.0596 274.682 53.6228 270.712C52.457 270.003 51.2912 269.294 50.0902 268.564C47.6312 267.065 45.1751 265.562 42.7218 264.055C38.982 261.757 35.2333 259.474 31.4828 257.194C29.089 255.733 26.6958 254.271 24.3031 252.808C23.1894 252.129 22.0757 251.45 20.9282 250.75C17.9495 248.917 14.9969 247.041 12.0465 245.163C10.5403 244.351 9.03409 243.54 7.48223 242.704C3.40056 238.384 3.48218 234.862 3.48483 229.068C3.52453 227.71 3.56422 226.352 3.60511 224.953C3.616 223.553 3.62688 222.153 3.63809 220.71C3.6811 216.243 3.77761 211.778 3.87548 207.312C3.91405 204.281 3.94914 201.251 3.98062 198.221C4.06537 190.796 4.19809 183.373 4.35613 175.949Z" fill="#F75A1D"/>
<path d="M2.43359 81.7422C3.06805 81.7422 3.70251 81.7422 4.35619 81.7422C4.35619 84.9145 4.35619 88.0868 4.35619 91.3552C24.0244 91.3552 43.6926 91.3552 63.9568 91.3552C54.3438 99.0456 54.3438 99.0456 44.7308 102.891C44.7308 131.441 44.7308 159.992 44.7308 189.408C31.4072 184.967 18.0836 180.525 4.35619 175.95C4.35619 196.252 4.35619 216.555 4.35619 237.473C3.72174 237.473 3.08728 237.473 2.43359 237.473C2.43359 186.082 2.43359 134.691 2.43359 81.7422Z" fill="#FDAF30"/>
<path d="M202.384 39.4414C210.326 42.3239 217.343 46.2659 224.509 50.6766C226.261 51.743 226.261 51.743 228.048 52.8308C231.754 55.09 235.454 57.3593 239.154 59.6287C241.655 61.1539 244.156 62.6785 246.657 64.2024C264.602 75.1522 264.602 75.1522 271.598 79.816C273.231 87.9827 273.156 92.4989 268.962 99.763C265.674 104.247 262.271 108.617 258.811 112.97C252.464 121.231 246.675 129.921 240.741 138.481C239.783 139.848 238.826 141.215 237.84 142.623C236.552 144.475 236.552 144.475 235.238 146.365C234.548 147.244 233.857 148.124 233.146 149.03C232.512 149.03 231.877 149.03 231.223 149.03C231.357 147.811 231.49 146.592 231.627 145.336C232.834 131.781 233.895 117.816 229.301 104.81C219.878 93.6373 206.009 87.3805 192.771 81.7386C193.859 71.3905 195.676 61.9488 198.659 51.9383C199.356 49.5789 200.052 47.2195 200.77 44.7886C201.303 43.0241 201.835 41.2595 202.384 39.4414Z" fill="#E52526"/>
<path d="M73.5691 233.625C80.7307 236.49 86.2072 239.094 92.6148 243.11C94.3621 244.2 96.1093 245.289 97.9095 246.411C100.612 248.112 100.612 248.112 103.369 249.847C106.954 252.088 110.539 254.328 114.124 256.569C115.704 257.561 117.284 258.553 118.912 259.576C121.211 261.005 121.211 261.005 123.557 262.464C125.226 263.51 126.895 264.556 128.615 265.634C133.401 268.364 137.359 269.38 142.783 270.154C135.861 282.844 127.806 294.719 119.711 306.684C112.31 305.572 107.113 303.428 100.748 299.527C99.211 298.595 97.6736 297.663 96.0897 296.702C94.1697 295.515 92.2498 294.328 90.2717 293.105C81.0522 287.455 81.0522 287.455 71.6465 281.69C72.2809 265.829 72.9154 249.967 73.5691 233.625Z" fill="#FDA728"/>
<path d="M75.491 39.4414C76.0932 46.6468 76.5833 53.8555 77.0531 61.0707C77.2254 63.1153 77.3976 65.1599 77.5751 67.2665C77.6928 69.2368 77.8105 71.2071 77.9318 73.2371C78.0627 75.0494 78.1936 76.8617 78.3284 78.7289C77.4136 83.6612 77.4136 83.6612 73.5008 88.111C66.4885 92.0975 60.8206 92.3351 52.9831 92.1026C51.5884 92.0917 50.1938 92.0809 48.7569 92.0697C44.3289 92.0268 39.904 91.9303 35.4769 91.8323C32.4641 91.7937 29.4513 91.7586 26.4384 91.7271C19.076 91.6426 11.7159 91.51 4.35479 91.3516C3.62098 80.6871 3.62098 80.6871 6.83643 76.8702C8.57832 75.8153 8.57832 75.8153 10.3554 74.7391C11.6637 73.9196 12.9719 73.1 14.3198 72.2556C15.7501 71.4196 17.1805 70.5837 18.6541 69.7224C20.8368 68.3847 20.8368 68.3847 23.0635 67.0201C27.6989 64.1955 32.368 61.4326 37.039 58.6674C40.1227 56.7906 43.2044 54.9106 46.284 53.0273C49.2083 51.2588 52.1347 49.4938 55.0634 47.7326C56.4449 46.898 57.8264 46.0634 59.2498 45.2036C69.0443 39.4414 69.0443 39.4414 75.491 39.4414Z" fill="#FB7226"/>
<path d="M269.675 79.8164C270.31 79.8164 270.944 79.8164 271.598 79.8164C272.797 87.7654 273.025 92.6945 268.984 99.7784C265.677 104.247 262.27 108.619 258.811 112.97C252.463 121.231 246.674 129.921 240.74 138.482C239.783 139.848 238.826 141.215 237.839 142.624C236.552 144.476 236.552 144.476 235.238 146.365C234.547 147.245 233.857 148.124 233.146 149.03C232.511 149.03 231.877 149.03 231.223 149.03C231.296 147.771 231.368 146.512 231.443 145.215C233.498 122.257 233.498 122.257 226.756 101.237C220.112 95.4959 212.51 92.4644 204.307 89.4294C204.307 88.7949 204.307 88.1605 204.307 87.5068C225.878 87.5068 247.45 87.5068 269.675 87.5068C269.675 84.969 269.675 82.4311 269.675 79.8164Z" fill="#F94829"/>
<path d="M6.2793 91.3555C25.313 91.3555 44.3468 91.3555 63.9573 91.3555C60.785 93.8933 57.6127 96.4311 54.3443 99.0459C53.7098 97.777 53.0754 96.508 52.4217 95.2007C37.1947 94.5662 21.9677 93.9318 6.2793 93.2781C6.2793 92.6436 6.2793 92.0092 6.2793 91.3555Z" fill="#FDB230"/>
<path d="M44.7305 91.3555C51.075 91.3555 57.4196 91.3555 63.9565 91.3555C60.7842 93.8933 57.6119 96.4311 54.3435 99.0459C53.709 97.777 53.0746 96.508 52.4209 95.2007C49.883 93.9318 47.3452 92.6628 44.7305 91.3555Z" fill="#FDB83B"/>
</svg>
