<svg width="884" height="304" viewBox="0 0 884 304" fill="none" xmlns="http://www.w3.org/2000/svg">
<path d="M347.141 180L318.12 85.5127H317.445C317.558 87.7624 317.726 91.137 317.951 95.6364C318.176 100.136 318.401 104.973 318.626 110.147C318.851 115.209 318.964 119.821 318.964 123.983V180H296.185V59.5287H330.943L359.458 151.654H359.964L390.167 59.5287H424.924V180H401.134V122.97C401.134 119.146 401.19 114.759 401.303 109.809C401.528 104.86 401.696 100.192 401.809 95.8051C402.034 91.3057 402.202 87.9311 402.315 85.6814H401.64L370.594 180H347.141ZM478.472 87.8749V180H453.331V87.8749H478.472ZM465.986 51.7673C469.698 51.7673 472.904 52.6671 475.603 54.4669C478.303 56.1542 479.653 59.36 479.653 64.0844C479.653 68.6962 478.303 71.902 475.603 73.7018C472.904 75.5016 469.698 76.4014 465.986 76.4014C462.161 76.4014 458.899 75.5016 456.2 73.7018C453.612 71.902 452.319 68.6962 452.319 64.0844C452.319 59.36 453.612 56.1542 456.2 54.4669C458.899 52.6671 462.161 51.7673 465.986 51.7673ZM557.046 86.1876C566.944 86.1876 574.875 88.8873 580.836 94.2865C586.798 99.5733 589.779 108.122 589.779 119.933V180H564.638V126.176C564.638 119.539 563.457 114.59 561.095 111.328C558.733 107.953 554.965 106.266 549.79 106.266C542.141 106.266 536.911 108.91 534.099 114.196C531.287 119.371 529.881 126.851 529.881 136.637V180H504.74V87.8749H523.975L527.35 99.6858H528.7C530.724 96.5362 533.199 94.0053 536.124 92.0931C539.048 90.0684 542.31 88.6061 545.91 87.7062C549.509 86.6938 553.221 86.1876 557.046 86.1876ZM667.938 86.1876C677.836 86.1876 685.767 88.8873 691.728 94.2865C697.69 99.5733 700.671 108.122 700.671 119.933V180H675.531V126.176C675.531 119.539 674.349 114.59 671.987 111.328C669.625 107.953 665.857 106.266 660.683 106.266C653.034 106.266 647.803 108.91 644.991 114.196C642.179 119.371 640.773 126.851 640.773 136.637V180H615.632V87.8749H634.867L638.242 99.6858H639.592C641.616 96.5362 644.091 94.0053 647.016 92.0931C649.94 90.0684 653.202 88.6061 656.802 87.7062C660.401 86.6938 664.113 86.1876 667.938 86.1876ZM764.319 86.0189C776.693 86.0189 786.141 88.7185 792.665 94.1178C799.302 99.4046 802.62 107.56 802.62 118.583V180H785.073L780.18 167.514H779.505C776.918 170.776 774.218 173.476 771.406 175.613C768.706 177.75 765.557 179.269 761.957 180.169C758.47 181.181 754.139 181.687 748.965 181.687C743.566 181.687 738.673 180.675 734.286 178.65C730.011 176.513 726.637 173.307 724.162 169.033C721.688 164.646 720.45 159.134 720.45 152.497C720.45 142.711 723.881 135.512 730.743 130.9C737.604 126.176 747.896 123.589 761.62 123.139L777.649 122.633V118.583C777.649 113.746 776.355 110.203 773.768 107.953C771.293 105.704 767.806 104.579 763.307 104.579C758.808 104.579 754.421 105.254 750.146 106.604C745.872 107.841 741.597 109.416 737.323 111.328L729.055 94.2865C734.005 91.6994 739.46 89.6747 745.422 88.2124C751.496 86.7501 757.795 86.0189 764.319 86.0189ZM767.863 137.649C759.764 137.874 754.139 139.337 750.99 142.036C747.84 144.736 746.265 148.279 746.265 152.666C746.265 156.491 747.39 159.247 749.64 160.934C751.89 162.509 754.814 163.296 758.414 163.296C763.813 163.296 768.369 161.721 772.081 158.572C775.793 155.31 777.649 150.754 777.649 144.905V137.312L767.863 137.649ZM853.494 180H828.354V51.7673H853.494V180Z" fill="#333333"/>
<path d="M314.704 248L300.88 207.936H300.624C300.709 208.789 300.773 209.877 300.816 211.2C300.901 212.523 300.965 213.973 301.008 215.552C301.051 217.088 301.072 218.667 301.072 220.288V248H295.824V202.304H304.144L317.136 239.744H317.392L330.64 202.304H338.96V248H333.328V219.904C333.328 218.411 333.349 216.939 333.392 215.488C333.435 213.995 333.499 212.608 333.584 211.328C333.669 210.005 333.733 208.896 333.776 208H333.52L319.44 248H314.704ZM362.221 213.12C366.146 213.12 369.069 214.037 370.989 215.872C372.951 217.707 373.933 220.629 373.933 224.64V248H369.901L368.813 243.136H368.557C367.618 244.373 366.658 245.419 365.677 246.272C364.738 247.083 363.629 247.68 362.349 248.064C361.111 248.448 359.575 248.64 357.741 248.64C355.821 248.64 354.093 248.277 352.557 247.552C351.021 246.827 349.805 245.717 348.909 244.224C348.013 242.688 347.565 240.768 347.565 238.464C347.565 235.051 348.823 232.427 351.341 230.592C353.858 228.715 357.741 227.691 362.989 227.52L368.429 227.328V225.28C368.429 222.421 367.853 220.437 366.701 219.328C365.591 218.219 363.991 217.664 361.901 217.664C360.237 217.664 358.637 217.941 357.101 218.496C355.607 219.008 354.178 219.605 352.812 220.288L351.085 216.064C352.535 215.253 354.22 214.571 356.141 214.016C358.061 213.419 360.087 213.12 362.221 213.12ZM363.757 231.424C359.831 231.595 357.101 232.277 355.565 233.472C354.071 234.667 353.325 236.352 353.325 238.528C353.325 240.448 353.858 241.856 354.925 242.752C355.991 243.648 357.378 244.096 359.085 244.096C361.73 244.096 363.949 243.307 365.741 241.728C367.533 240.107 368.429 237.632 368.429 234.304V231.232L363.757 231.424ZM399.165 213.056C399.762 213.056 400.402 213.099 401.085 213.184C401.767 213.227 402.365 213.312 402.877 213.44L402.237 218.624C401.725 218.496 401.149 218.389 400.509 218.304C399.911 218.219 399.335 218.176 398.781 218.176C397.543 218.176 396.37 218.453 395.26 219.008C394.151 219.563 393.149 220.352 392.253 221.376C391.399 222.357 390.717 223.552 390.205 224.96C389.693 226.368 389.437 227.947 389.437 229.696V248H383.869V213.696H388.413L389.053 219.968H389.309C389.991 218.688 390.802 217.536 391.741 216.512C392.722 215.445 393.831 214.613 395.069 214.016C396.306 213.376 397.671 213.056 399.165 213.056ZM414.373 224.768C414.373 225.451 414.33 226.347 414.245 227.456C414.202 228.565 414.159 229.525 414.117 230.336H414.373C414.629 229.995 414.991 229.504 415.461 228.864C415.93 228.224 416.421 227.584 416.933 226.944C417.445 226.261 417.893 225.707 418.277 225.28L428.453 213.696H434.917L421.861 228.352L435.812 248H429.157L418.085 232L414.373 235.392V248H408.869V199.36H414.373V224.768ZM453.913 213.056C456.686 213.056 459.075 213.696 461.081 214.976C463.086 216.256 464.622 218.069 465.689 220.416C466.798 222.72 467.353 225.429 467.353 228.544V231.936H445.337C445.422 235.819 446.339 238.784 448.089 240.832C449.838 242.837 452.291 243.84 455.449 243.84C457.497 243.84 459.31 243.648 460.889 243.264C462.51 242.837 464.174 242.24 465.881 241.472V246.4C464.217 247.168 462.574 247.723 460.953 248.064C459.374 248.448 457.454 248.64 455.193 248.64C452.121 248.64 449.411 247.979 447.065 246.656C444.718 245.333 442.883 243.371 441.561 240.768C440.238 238.123 439.577 234.901 439.577 231.104C439.577 227.349 440.174 224.128 441.369 221.44C442.563 218.752 444.227 216.683 446.361 215.232C448.537 213.781 451.054 213.056 453.913 213.056ZM453.913 217.664C451.438 217.664 449.475 218.539 448.025 220.288C446.574 221.995 445.721 224.384 445.465 227.456H461.593C461.593 225.493 461.315 223.787 460.761 222.336C460.206 220.885 459.353 219.755 458.201 218.944C457.091 218.091 455.662 217.664 453.913 217.664ZM486.503 244.032C487.314 244.032 488.146 243.968 488.999 243.84C489.852 243.669 490.556 243.499 491.111 243.328V247.616C490.514 247.915 489.66 248.149 488.551 248.32C487.484 248.533 486.46 248.64 485.479 248.64C483.772 248.64 482.194 248.341 480.743 247.744C479.292 247.104 478.119 246.016 477.223 244.48C476.37 242.944 475.943 240.789 475.943 238.016V218.048H471.399V215.36L476.071 213.12L478.183 205.824H481.511V213.696H490.855V218.048H481.511V237.888C481.511 239.979 481.98 241.536 482.919 242.56C483.858 243.541 485.052 244.032 486.503 244.032ZM503.126 213.696V248H497.558V213.696H503.126ZM500.374 200.832C501.227 200.832 501.974 201.131 502.614 201.728C503.254 202.283 503.574 203.179 503.574 204.416C503.574 205.611 503.254 206.507 502.614 207.104C501.974 207.701 501.227 208 500.374 208C499.478 208 498.71 207.701 498.07 207.104C497.43 206.507 497.11 205.611 497.11 204.416C497.11 203.179 497.43 202.283 498.07 201.728C498.71 201.131 499.478 200.832 500.374 200.832ZM528.988 213.056C532.828 213.056 535.729 214.059 537.692 216.064C539.697 218.027 540.7 221.227 540.7 225.664V248H535.132V226.048C535.132 223.275 534.556 221.205 533.404 219.84C532.252 218.475 530.481 217.792 528.092 217.792C524.593 217.792 522.161 218.859 520.796 220.992C519.473 223.125 518.812 226.197 518.812 230.208V248H513.244V213.696H517.724L518.556 218.368H518.876C519.558 217.173 520.433 216.192 521.5 215.424C522.566 214.613 523.74 214.016 525.02 213.632C526.3 213.248 527.622 213.056 528.988 213.056ZM562.01 213.056C564.144 213.056 566.043 213.483 567.707 214.336C569.413 215.189 570.864 216.491 572.059 218.24H572.379L573.083 213.696H577.562V248.576C577.562 251.819 577.029 254.528 575.963 256.704C574.939 258.923 573.339 260.587 571.163 261.696C569.029 262.805 566.299 263.36 562.971 263.36C560.624 263.36 558.491 263.168 556.571 262.784C554.651 262.443 552.901 261.909 551.323 261.184V256C552.389 256.555 553.541 257.024 554.779 257.408C556.059 257.835 557.403 258.155 558.811 258.368C560.261 258.581 561.755 258.688 563.291 258.688C566.021 258.688 568.155 257.813 569.691 256.064C571.269 254.357 572.059 252.011 572.059 249.024V247.68C572.059 247.168 572.08 246.443 572.123 245.504C572.165 244.523 572.208 243.84 572.251 243.456H571.995C570.885 245.205 569.499 246.507 567.835 247.36C566.171 248.213 564.251 248.64 562.075 248.64C557.936 248.64 554.693 247.083 552.347 243.968C550 240.853 548.827 236.501 548.827 230.912C548.827 227.243 549.339 224.085 550.363 221.44C551.429 218.752 552.944 216.683 554.907 215.232C556.912 213.781 559.28 213.056 562.01 213.056ZM562.907 217.792C561.157 217.792 559.643 218.304 558.363 219.328C557.125 220.352 556.187 221.845 555.547 223.808C554.907 225.771 554.587 228.16 554.587 230.976C554.587 235.2 555.291 238.443 556.699 240.704C558.149 242.923 560.261 244.032 563.035 244.032C564.613 244.032 565.979 243.819 567.131 243.392C568.283 242.923 569.221 242.219 569.947 241.28C570.672 240.299 571.205 239.061 571.547 237.568C571.931 236.075 572.123 234.304 572.123 232.256V230.912C572.123 227.797 571.781 225.28 571.099 223.36C570.459 221.44 569.456 220.032 568.091 219.136C566.768 218.24 565.04 217.792 562.907 217.792ZM621.473 248H615.777V226.688H594.145V248H588.449V202.304H594.145V221.632H615.777V202.304H621.473V248ZM659.631 213.696V248H655.151L654.319 243.456H654.063C653.38 244.651 652.484 245.632 651.375 246.4C650.308 247.168 649.135 247.723 647.855 248.064C646.575 248.448 645.231 248.64 643.823 248.64C641.263 248.64 639.108 248.213 637.359 247.36C635.61 246.464 634.287 245.099 633.391 243.264C632.538 241.429 632.111 239.061 632.111 236.16V213.696H637.743V235.776C637.743 238.507 638.319 240.555 639.471 241.92C640.623 243.285 642.394 243.968 644.783 243.968C647.13 243.968 648.964 243.499 650.287 242.56C651.652 241.579 652.612 240.171 653.167 238.336C653.764 236.459 654.063 234.197 654.063 231.552V213.696H659.631ZM675.312 211.2C675.312 212.651 675.269 214.016 675.184 215.296C675.141 216.533 675.077 217.515 674.992 218.24H675.312C676.208 216.789 677.466 215.573 679.088 214.592C680.709 213.611 682.757 213.12 685.232 213.12C689.242 213.12 692.442 214.613 694.832 217.6C697.264 220.544 698.479 224.96 698.479 230.848C698.479 234.773 697.925 238.059 696.816 240.704C695.706 243.349 694.149 245.333 692.144 246.656C690.181 247.979 687.877 248.64 685.232 248.64C682.714 248.64 680.645 248.149 679.024 247.168C677.445 246.187 676.208 245.013 675.312 243.648H674.864L673.776 248H669.744V199.36H675.312V211.2ZM684.208 217.792C681.989 217.792 680.218 218.261 678.896 219.2C677.616 220.096 676.698 221.504 676.144 223.424C675.589 225.301 675.312 227.712 675.312 230.656V230.912C675.312 235.136 675.93 238.379 677.168 240.64C678.448 242.859 680.837 243.968 684.336 243.968C687.109 243.968 689.2 242.837 690.608 240.576C692.016 238.315 692.72 235.051 692.72 230.784C692.72 226.475 692.016 223.232 690.608 221.056C689.2 218.88 687.066 217.792 684.208 217.792Z" fill="#333333"/>
<path d="M101.534 30.5713C108.177 26.512 116.495 26.3609 123.281 30.1758L216.216 82.4199C222.988 86.2272 227.181 93.3928 227.181 101.162V209.534C227.181 217.303 222.988 224.468 216.216 228.275L122.966 280.697C116.345 284.419 108.251 284.372 101.674 280.572L11.2441 228.323C4.59542 224.482 0.5 217.386 0.5 209.707V104.372C0.500104 96.8823 4.39817 89.9319 10.7891 86.0264L101.534 30.5713Z" fill="#FF6B35" stroke="#CC3C08"/>
<path d="M117.947 143.338L117.694 144.046L118.445 144.005L187.076 140.265L157.222 173.719L157.215 173.726L157.21 173.733L68.8041 280.249L106.256 173.927L106.489 173.265L105.786 173.261L39.9485 172.892L88.9549 118.01L88.9608 118.004L88.9658 117.997L155.391 38.4173L117.947 143.338Z" fill="white" stroke="#CC3C08"/>
</svg>
